<svg width="89" height="39" viewBox="0 0 89 39" fill="none" xmlns="http://www.w3.org/2000/svg">
<rect width="88.344" height="38.7407" rx="4" fill="#333333"/>
<path d="M29.58 20.168C28.364 20.168 27.436 19.796 26.796 19.052C26.164 18.308 25.848 17.224 25.848 15.8C25.848 14.376 26.164 13.292 26.796 12.548C27.436 11.804 28.364 11.432 29.58 11.432C30.796 11.432 31.72 11.804 32.352 12.548C32.992 13.292 33.312 14.376 33.312 15.8C33.312 17.224 32.992 18.308 32.352 19.052C31.72 19.796 30.796 20.168 29.58 20.168ZM29.58 18.992C30.268 18.992 30.784 18.72 31.128 18.176C31.472 17.632 31.644 16.84 31.644 15.8C31.644 14.76 31.472 13.968 31.128 13.424C30.784 12.88 30.268 12.608 29.58 12.608C28.9 12.608 28.384 12.88 28.032 13.424C27.688 13.968 27.516 14.76 27.516 15.8C27.516 16.84 27.688 17.632 28.032 18.176C28.384 18.72 28.9 18.992 29.58 18.992ZM34.6087 20V15.668C34.6087 15.388 34.5967 15.092 34.5727 14.78C34.5487 14.46 34.5167 14.176 34.4767 13.928H35.9287C35.9607 14.04 35.9887 14.176 36.0127 14.336C36.0447 14.496 36.0727 14.664 36.0967 14.84C36.2967 14.512 36.5527 14.252 36.8647 14.06C37.1847 13.86 37.5447 13.76 37.9447 13.76C38.4167 13.76 38.8047 13.864 39.1087 14.072C39.4207 14.28 39.6527 14.58 39.8047 14.972C40.0047 14.604 40.2727 14.312 40.6087 14.096C40.9527 13.872 41.3447 13.76 41.7847 13.76C42.4887 13.76 43.0087 13.984 43.3447 14.432C43.6807 14.88 43.8487 15.508 43.8487 16.316V20H42.2887V16.568C42.2887 16.048 42.2087 15.664 42.0487 15.416C41.8967 15.168 41.6447 15.044 41.2927 15.044C40.9487 15.044 40.6487 15.18 40.3927 15.452C40.1367 15.716 40.0087 16.064 40.0087 16.496V20H38.4487V16.568C38.4487 16.048 38.3687 15.664 38.2087 15.416C38.0567 15.168 37.8047 15.044 37.4527 15.044C37.1087 15.044 36.8087 15.18 36.5527 15.452C36.2967 15.716 36.1687 16.064 36.1687 16.496V20H34.6087ZM45.3313 20V15.668C45.3313 15.388 45.3193 15.092 45.2953 14.78C45.2713 14.46 45.2393 14.176 45.1993 13.928H46.6513C46.6833 14.04 46.7113 14.18 46.7353 14.348C46.7673 14.508 46.7953 14.672 46.8193 14.84C47.0273 14.512 47.2913 14.252 47.6113 14.06C47.9393 13.86 48.3193 13.76 48.7513 13.76C49.4873 13.76 50.0233 13.988 50.3593 14.444C50.7033 14.9 50.8753 15.544 50.8753 16.376V20H49.3153V16.628C49.3153 16.076 49.2353 15.676 49.0753 15.428C48.9153 15.172 48.6433 15.044 48.2593 15.044C47.8673 15.044 47.5393 15.18 47.2753 15.452C47.0193 15.724 46.8913 16.092 46.8913 16.556V20H45.3313ZM52.1826 12.128C52.1826 11.848 52.2706 11.62 52.4466 11.444C52.6306 11.268 52.8626 11.18 53.1426 11.18C53.4226 11.18 53.6506 11.268 53.8266 11.444C54.0106 11.62 54.1026 11.848 54.1026 12.128C54.1026 12.408 54.0106 12.636 53.8266 12.812C53.6506 12.988 53.4226 13.076 53.1426 13.076C52.8626 13.076 52.6306 12.988 52.4466 12.812C52.2706 12.636 52.1826 12.408 52.1826 12.128ZM52.3626 20V13.928H53.9226V20H52.3626ZM55.5992 20V11.6H60.7472V12.8H57.2432V15.332H60.3272V16.532H57.2432V20H55.5992ZM61.9485 18.044V11.24H63.5085V18.032C63.5085 18.4 63.5605 18.66 63.6645 18.812C63.7765 18.964 63.9605 19.04 64.2165 19.04C64.4085 19.04 64.5965 19.02 64.7805 18.98L64.8525 19.964C64.7245 20.02 64.5645 20.068 64.3725 20.108C64.1805 20.148 63.9645 20.168 63.7245 20.168C63.1565 20.168 62.7165 20.012 62.4045 19.7C62.1005 19.38 61.9485 18.828 61.9485 18.044ZM68.2327 20.168C67.3047 20.168 66.5807 19.892 66.0607 19.34C65.5487 18.78 65.2927 17.988 65.2927 16.964C65.2927 15.94 65.5487 15.152 66.0607 14.6C66.5807 14.04 67.3047 13.76 68.2327 13.76C69.1607 13.76 69.8807 14.04 70.3927 14.6C70.9127 15.152 71.1727 15.94 71.1727 16.964C71.1727 17.988 70.9127 18.78 70.3927 19.34C69.8807 19.892 69.1607 20.168 68.2327 20.168ZM68.2327 19.04C69.1127 19.04 69.5527 18.348 69.5527 16.964C69.5527 15.58 69.1127 14.888 68.2327 14.888C67.3527 14.888 66.9127 15.58 66.9127 16.964C66.9127 18.348 67.3527 19.04 68.2327 19.04ZM76.9125 20L75.8085 16.52L74.7285 20H73.4805C73.1445 18.984 72.8365 17.972 72.5565 16.964C72.2845 15.956 72.0405 14.944 71.8245 13.928H73.5045C73.5845 14.616 73.6845 15.304 73.8045 15.992C73.9245 16.672 74.0645 17.352 74.2245 18.032L75.2685 14.516H76.5285L77.6205 18.056C77.7565 17.368 77.8765 16.68 77.9805 15.992C78.0845 15.304 78.1685 14.616 78.2325 13.928H79.8645C79.6485 14.944 79.4005 15.956 79.1205 16.964C78.8485 17.972 78.5445 18.984 78.2085 20H76.9125Z" fill="white"/>
<path d="M35.4576 29.8234C36.5436 29.8234 37.2811 29.0602 37.2811 27.9999V27.4385H36.3381V27.9999C36.3381 28.5539 35.9969 28.9171 35.4576 28.9171C34.9549 28.9171 34.6614 28.6016 34.61 28.154H33.6744C33.7257 29.1299 34.4302 29.8197 35.4576 29.8197V29.8234ZM36.3381 26.8441H37.2811V25.0536H35.4392V25.9452H36.3381V26.8441ZM39.8494 29.7317H40.6897C40.6236 29.4601 40.5796 29.0125 40.5796 28.7043V27.6623C40.5796 26.8624 40.0806 26.3708 39.2037 26.3708C38.2534 26.3708 37.8388 26.9725 37.7764 27.4495H38.6166C38.668 27.2367 38.8551 27.1009 39.178 27.1009C39.5009 27.1009 39.7027 27.2624 39.7027 27.5853V27.721L38.8881 27.7614C38.0296 27.8054 37.681 28.2383 37.681 28.8217C37.681 29.4491 38.1286 29.8234 38.8074 29.8234C39.3101 29.8234 39.633 29.5776 39.7981 29.3758C39.8127 29.5115 39.8384 29.6399 39.8568 29.7317H39.8494ZM39.699 28.5502C39.699 28.9832 39.3321 29.1263 39.0349 29.1263C38.7377 29.1263 38.5616 29.0089 38.5616 28.763C38.5616 28.5502 38.6973 28.3961 39.0642 28.3741L39.699 28.3411V28.5465V28.5502ZM42.693 29.8234C43.1406 29.8234 43.5992 29.6693 43.8744 29.4161L43.5515 28.7373C43.3057 28.8914 42.9902 28.9942 42.7443 28.9942C42.2417 28.9942 41.9188 28.653 41.9188 28.0953C41.9188 27.5376 42.2343 27.1963 42.792 27.1963C43.0232 27.1963 43.2947 27.2991 43.5222 27.4495L43.8781 26.745C43.5919 26.4992 43.2066 26.3708 42.7737 26.3708C41.6546 26.3708 41.0015 27.167 41.0015 28.0953C41.0015 29.1556 41.6473 29.8197 42.6966 29.8197L42.693 29.8234ZM45.6282 29.8234C46.6372 29.8234 47.3527 29.1593 47.3527 28.0989C47.3527 27.0386 46.6666 26.3745 45.6576 26.3745C44.6486 26.3745 43.9625 27.0973 43.9625 28.0989C43.9625 29.1006 44.6339 29.8234 45.6246 29.8234H45.6282ZM45.6613 29.0162C45.1879 29.0162 44.8871 28.675 44.8871 28.0989C44.8871 27.5229 45.1916 27.1817 45.6613 27.1817C46.1309 27.1817 46.4354 27.5229 46.4354 28.0989C46.4354 28.675 46.1309 29.0162 45.6613 29.0162ZM49.6312 29.8234C50.4127 29.8234 51.1098 29.1886 51.1098 28.0989C51.1098 27.0092 50.4751 26.3745 49.6605 26.3745C49.2203 26.3745 48.8864 26.5616 48.6772 26.8735V25.0573H47.7856V28.8254C47.7856 29.1373 47.771 29.4088 47.7453 29.7353H48.5855C48.6002 29.6069 48.6112 29.4712 48.6185 29.3207C48.857 29.6583 49.2276 29.8234 49.6275 29.8234H49.6312ZM49.4184 29.0162C48.9451 29.0162 48.6442 28.675 48.6442 28.0989C48.6442 27.5229 48.9487 27.1817 49.4184 27.1817C49.888 27.1817 50.1926 27.5229 50.1926 28.0989C50.1926 28.675 49.888 29.0162 49.4184 29.0162ZM52.6839 29.8234C53.5388 29.8234 54.1331 29.3831 54.1331 28.7447C54.1331 28.1943 53.8103 27.8714 53.1315 27.7283L52.7059 27.6366C52.4931 27.5926 52.3757 27.4935 52.3757 27.3724C52.3757 27.2037 52.5371 27.1009 52.8013 27.1009C53.0985 27.1009 53.3847 27.1853 53.7185 27.3798L54.0084 26.7157C53.7039 26.4955 53.2893 26.3745 52.8306 26.3745C51.9977 26.3745 51.4547 26.8001 51.4547 27.4678C51.4547 27.9962 51.7703 28.3081 52.4454 28.4438L52.838 28.5282C53.1021 28.5869 53.1939 28.664 53.1939 28.8181C53.1939 28.9868 53.0067 29.0822 52.6692 29.0822C52.3903 29.0822 51.9831 28.9318 51.6418 28.708L51.3557 29.3794C51.6455 29.6509 52.1518 29.8197 52.6802 29.8271L52.6839 29.8234Z" fill="white"/>
<path d="M28.8569 27.4165C28.7174 27.4165 28.5854 27.4458 28.4606 27.5045C28.3395 27.5632 28.2331 27.6513 28.1487 27.7614V26.4075H27.7341V29.5739C27.8552 29.6473 28.002 29.706 28.1708 29.7537C28.3395 29.8014 28.5083 29.8234 28.6844 29.8234C29.0256 29.8234 29.2935 29.717 29.4879 29.5042C29.6824 29.2914 29.7815 28.9868 29.7815 28.5869C29.7815 28.2237 29.7008 27.9375 29.543 27.7284C29.3852 27.5229 29.1577 27.4165 28.8605 27.4165H28.8569ZM28.6441 29.4858C28.4643 29.4858 28.2992 29.4528 28.1487 29.3831V28.3631C28.1487 28.2384 28.1781 28.1283 28.2331 28.0366C28.2882 27.9448 28.3652 27.8714 28.4569 27.8237C28.5487 27.7724 28.6441 27.7467 28.7468 27.7467C28.9523 27.7467 29.1027 27.8201 29.1981 27.9668C29.2935 28.1136 29.3412 28.3264 29.3412 28.6053C29.3412 29.1923 29.11 29.4858 28.6477 29.4858H28.6441ZM32.1737 27.4642C32.126 27.6403 32.0746 27.8274 32.0123 28.0255C31.9499 28.2237 31.8839 28.4255 31.8141 28.6309C31.7444 28.8364 31.671 29.0309 31.5977 29.2217C31.5243 29.4088 31.4546 29.5812 31.3849 29.739C31.2931 29.9445 31.2087 30.1133 31.1354 30.2453C31.062 30.3774 30.9886 30.4802 30.9152 30.5499C30.8418 30.6233 30.7611 30.671 30.6731 30.7003C30.585 30.7297 30.4823 30.7407 30.3612 30.7407C30.2988 30.7407 30.2364 30.7333 30.1667 30.726C30.097 30.715 30.042 30.7003 29.9943 30.682L30.0163 30.3701C30.1264 30.3921 30.2291 30.4031 30.3208 30.4031C30.4126 30.4031 30.4969 30.3848 30.5667 30.3517C30.6364 30.3187 30.6987 30.26 30.7575 30.1756C30.8162 30.0912 30.8749 29.9775 30.9372 29.8307C30.7318 29.3721 30.552 28.9502 30.4052 28.5686C30.2585 28.187 30.1227 27.8201 30.009 27.4642H30.4566C30.5446 27.754 30.6437 28.0549 30.7538 28.3631C30.8639 28.6713 30.9923 29.0199 31.1464 29.4088C31.2675 29.0822 31.3775 28.7447 31.4766 28.4071C31.5757 28.0659 31.66 27.754 31.7261 27.4679H32.1737V27.4642Z" fill="white"/>
<path d="M14.5877 8.98506C14.5877 8.67715 14.2544 8.4847 13.9877 8.63866L8.20001 11.9802C8.07623 12.0516 8 12.1837 8 12.3266V19.9476C8 20.0905 8.07623 20.2226 8.20001 20.294L13.9877 23.6356C14.2544 23.7895 14.5877 23.5971 14.5877 23.2891V21.6703C14.5877 21.5274 14.5115 21.3953 14.3877 21.3239L10.602 19.1382C10.3545 18.9953 10.202 18.7312 10.202 18.4454V13.8289C10.202 13.5431 10.3545 13.2789 10.602 13.136L14.3877 10.9504C14.5115 10.8789 14.5877 10.7469 14.5877 10.6039V8.98506Z" fill="#FFA014"/>
<path d="M20.198 15.7248C19.9771 15.7248 19.798 15.5457 19.798 15.3248V13.8289C19.798 13.5431 19.6455 13.2789 19.398 13.136L15.6123 10.9504C15.4885 10.8789 15.4123 10.7469 15.4123 10.6039V8.98506C15.4123 8.67715 15.7456 8.4847 16.0123 8.63866L21.8 11.9802C21.9238 12.0516 22 12.1837 22 12.3266V15.3248C22 15.5457 21.8209 15.7248 21.6 15.7248H20.198Z" fill="#FFA014"/>
<path d="M15.4123 21.6703C15.4123 21.5274 15.4885 21.3953 15.6123 21.3239L19.398 19.1382C19.6455 18.9953 19.798 18.7312 19.798 18.4454V16.9494C19.798 16.7285 19.9771 16.5494 20.198 16.5494H21.6C21.8209 16.5494 22 16.7285 22 16.9494V19.9476C22 20.0905 21.9238 20.2226 21.8 20.294L16.0123 23.6356C15.7456 23.7895 15.4123 23.5971 15.4123 23.2891V21.6703Z" fill="#FFA014"/>
<path d="M14.8 12.7526C14.9238 12.6811 15.0762 12.6811 15.2 12.7526L17.8311 14.2716C17.9548 14.3431 18.0311 14.4751 18.0311 14.6181V17.6562C18.0311 17.7991 17.9548 17.9311 17.8311 18.0026L15.2 19.5216C15.0762 19.5931 14.9238 19.5931 14.8 19.5216L12.1689 18.0026C12.0452 17.9311 11.9689 17.7991 11.9689 17.6562V14.6181C11.9689 14.4751 12.0452 14.3431 12.1689 14.2716L14.8 12.7526Z" fill="#FFA014"/>
</svg>
