<svg width="73" height="24" viewBox="0 0 73 24" fill="none" xmlns="http://www.w3.org/2000/svg">
<path d="M21.5741 12.8307C20.3581 12.8307 19.4301 12.4587 18.7901 11.7147C18.1581 10.9707 17.8421 9.88666 17.8421 8.46266C17.8421 7.03866 18.1581 5.95466 18.7901 5.21066C19.4301 4.46666 20.3581 4.09466 21.5741 4.09466C22.7901 4.09466 23.7141 4.46666 24.3461 5.21066C24.9861 5.95466 25.3061 7.03866 25.3061 8.46266C25.3061 9.88666 24.9861 10.9707 24.3461 11.7147C23.7141 12.4587 22.7901 12.8307 21.5741 12.8307ZM21.5741 11.6547C22.2621 11.6547 22.7781 11.3827 23.1221 10.8387C23.4661 10.2947 23.6381 9.50266 23.6381 8.46266C23.6381 7.42266 23.4661 6.63066 23.1221 6.08666C22.7781 5.54266 22.2621 5.27066 21.5741 5.27066C20.8941 5.27066 20.3781 5.54266 20.0261 6.08666C19.6821 6.63066 19.5101 7.42266 19.5101 8.46266C19.5101 9.50266 19.6821 10.2947 20.0261 10.8387C20.3781 11.3827 20.8941 11.6547 21.5741 11.6547ZM26.6028 12.6627V8.33066C26.6028 8.05066 26.5908 7.75466 26.5668 7.44266C26.5428 7.12266 26.5108 6.83866 26.4708 6.59066H27.9228C27.9548 6.70266 27.9828 6.83866 28.0068 6.99866C28.0388 7.15866 28.0668 7.32666 28.0908 7.50266C28.2908 7.17466 28.5468 6.91466 28.8588 6.72266C29.1788 6.52266 29.5388 6.42266 29.9388 6.42266C30.4108 6.42266 30.7988 6.52666 31.1028 6.73466C31.4148 6.94266 31.6468 7.24266 31.7988 7.63466C31.9988 7.26666 32.2668 6.97466 32.6028 6.75866C32.9468 6.53466 33.3388 6.42266 33.7788 6.42266C34.4828 6.42266 35.0028 6.64666 35.3388 7.09466C35.6748 7.54266 35.8428 8.17066 35.8428 8.97866V12.6627H34.2828V9.23066C34.2828 8.71066 34.2028 8.32666 34.0428 8.07866C33.8908 7.83066 33.6388 7.70666 33.2868 7.70666C32.9428 7.70666 32.6428 7.84266 32.3868 8.11466C32.1308 8.37866 32.0028 8.72666 32.0028 9.15866V12.6627H30.4428V9.23066C30.4428 8.71066 30.3628 8.32666 30.2028 8.07866C30.0508 7.83066 29.7988 7.70666 29.4468 7.70666C29.1028 7.70666 28.8028 7.84266 28.5468 8.11466C28.2908 8.37866 28.1628 8.72666 28.1628 9.15866V12.6627H26.6028ZM37.3254 12.6627V8.33066C37.3254 8.05066 37.3134 7.75466 37.2894 7.44266C37.2654 7.12266 37.2334 6.83866 37.1934 6.59066H38.6454C38.6774 6.70266 38.7054 6.84266 38.7294 7.01066C38.7614 7.17066 38.7894 7.33466 38.8134 7.50266C39.0214 7.17466 39.2854 6.91466 39.6054 6.72266C39.9334 6.52266 40.3134 6.42266 40.7454 6.42266C41.4814 6.42266 42.0174 6.65066 42.3534 7.10666C42.6974 7.56266 42.8694 8.20666 42.8694 9.03866V12.6627H41.3094V9.29066C41.3094 8.73866 41.2294 8.33866 41.0694 8.09066C40.9094 7.83466 40.6374 7.70666 40.2534 7.70666C39.8614 7.70666 39.5334 7.84266 39.2694 8.11466C39.0134 8.38666 38.8854 8.75466 38.8854 9.21866V12.6627H37.3254ZM44.1767 4.79066C44.1767 4.51066 44.2647 4.28266 44.4407 4.10666C44.6247 3.93066 44.8567 3.84266 45.1367 3.84266C45.4167 3.84266 45.6447 3.93066 45.8207 4.10666C46.0047 4.28266 46.0967 4.51066 46.0967 4.79066C46.0967 5.07066 46.0047 5.29866 45.8207 5.47466C45.6447 5.65066 45.4167 5.73866 45.1367 5.73866C44.8567 5.73866 44.6247 5.65066 44.4407 5.47466C44.2647 5.29866 44.1767 5.07066 44.1767 4.79066ZM44.3567 12.6627V6.59066H45.9167V12.6627H44.3567ZM47.5933 12.6627V4.26266H52.7413V5.46266H49.2373V7.99466H52.3213V9.19466H49.2373V12.6627H47.5933ZM53.9426 10.7067V3.90266H55.5026V10.6947C55.5026 11.0627 55.5546 11.3227 55.6586 11.4747C55.7706 11.6267 55.9546 11.7027 56.2106 11.7027C56.4026 11.7027 56.5906 11.6827 56.7746 11.6427L56.8466 12.6267C56.7186 12.6827 56.5586 12.7307 56.3666 12.7707C56.1746 12.8107 55.9586 12.8307 55.7186 12.8307C55.1506 12.8307 54.7106 12.6747 54.3986 12.3627C54.0946 12.0427 53.9426 11.4907 53.9426 10.7067ZM60.2269 12.8307C59.2989 12.8307 58.5749 12.5547 58.0549 12.0027C57.5429 11.4427 57.2869 10.6507 57.2869 9.62666C57.2869 8.60266 57.5429 7.81466 58.0549 7.26266C58.5749 6.70266 59.2989 6.42266 60.2269 6.42266C61.1549 6.42266 61.8749 6.70266 62.3869 7.26266C62.9069 7.81466 63.1669 8.60266 63.1669 9.62666C63.1669 10.6507 62.9069 11.4427 62.3869 12.0027C61.8749 12.5547 61.1549 12.8307 60.2269 12.8307ZM60.2269 11.7027C61.1069 11.7027 61.5469 11.0107 61.5469 9.62666C61.5469 8.24266 61.1069 7.55066 60.2269 7.55066C59.3469 7.55066 58.9069 8.24266 58.9069 9.62666C58.9069 11.0107 59.3469 11.7027 60.2269 11.7027ZM68.9066 12.6627L67.8026 9.18266L66.7226 12.6627H65.4746C65.1386 11.6467 64.8306 10.6347 64.5506 9.62666C64.2786 8.61866 64.0346 7.60666 63.8186 6.59066H65.4986C65.5786 7.27866 65.6786 7.96666 65.7986 8.65466C65.9186 9.33466 66.0586 10.0147 66.2186 10.6947L67.2626 7.17866H68.5226L69.6146 10.7187C69.7506 10.0307 69.8706 9.34266 69.9746 8.65466C70.0786 7.96666 70.1626 7.27866 70.2266 6.59066H71.8586C71.6426 7.60666 71.3946 8.61866 71.1146 9.62666C70.8426 10.6347 70.5386 11.6467 70.2026 12.6627H68.9066Z" fill="white"/>
<path d="M27.4517 22.486C28.5377 22.486 29.2752 21.7229 29.2752 20.6625V20.1011H28.3323V20.6625C28.3323 21.2165 27.991 21.5798 27.4517 21.5798C26.949 21.5798 26.6555 21.2642 26.6041 20.8166H25.6685C25.7199 21.7926 26.4243 22.4824 27.4517 22.4824V22.486ZM28.3323 19.5068H29.2752V17.7162H27.4333V18.6078H28.3323V19.5068ZM31.8436 22.3943H32.6838C32.6177 22.1228 32.5737 21.6752 32.5737 21.367V20.325C32.5737 19.5251 32.0747 19.0334 31.1978 19.0334C30.2475 19.0334 29.8329 19.6352 29.7705 20.1122H30.6108C30.6621 19.8993 30.8493 19.7636 31.1721 19.7636C31.495 19.7636 31.6968 19.925 31.6968 20.2479V20.3837L30.8823 20.424C30.0237 20.4681 29.6751 20.901 29.6751 21.4844C29.6751 22.1118 30.1228 22.486 30.8016 22.486C31.3042 22.486 31.6271 22.2402 31.7922 22.0384C31.8069 22.1742 31.8326 22.3026 31.8509 22.3943H31.8436ZM31.6931 21.2129C31.6931 21.6458 31.3262 21.7889 31.029 21.7889C30.7318 21.7889 30.5557 21.6715 30.5557 21.4257C30.5557 21.2129 30.6915 21.0588 31.0584 21.0368L31.6931 21.0037V21.2092V21.2129ZM34.6871 22.486C35.1347 22.486 35.5934 22.3319 35.8685 22.0788L35.5457 21.4C35.2998 21.5541 34.9843 21.6568 34.7385 21.6568C34.2358 21.6568 33.9129 21.3156 33.9129 20.7579C33.9129 20.2002 34.2285 19.859 34.7862 19.859C35.0173 19.859 35.2888 19.9617 35.5163 20.1122L35.8722 19.4077C35.586 19.1619 35.2008 19.0334 34.7678 19.0334C33.6488 19.0334 32.9957 19.8296 32.9957 20.7579C32.9957 21.8183 33.6414 22.4824 34.6908 22.4824L34.6871 22.486ZM37.6224 22.486C38.6314 22.486 39.3468 21.8219 39.3468 20.7616C39.3468 19.7012 38.6607 19.0371 37.6517 19.0371C36.6427 19.0371 35.9566 19.7599 35.9566 20.7616C35.9566 21.7632 36.628 22.486 37.6187 22.486H37.6224ZM37.6554 21.6788C37.1821 21.6788 36.8812 21.3376 36.8812 20.7616C36.8812 20.1855 37.1857 19.8443 37.6554 19.8443C38.125 19.8443 38.4296 20.1855 38.4296 20.7616C38.4296 21.3376 38.125 21.6788 37.6554 21.6788ZM41.6253 22.486C42.4068 22.486 43.104 21.8513 43.104 20.7616C43.104 19.6719 42.4692 19.0371 41.6547 19.0371C41.2144 19.0371 40.8805 19.2242 40.6714 19.5361V17.7199H39.7798V21.4881C39.7798 21.7999 39.7651 22.0714 39.7394 22.398H40.5796C40.5943 22.2696 40.6053 22.1338 40.6127 21.9834C40.8512 22.3209 41.2217 22.486 41.6217 22.486H41.6253ZM41.4125 21.6788C40.9392 21.6788 40.6383 21.3376 40.6383 20.7616C40.6383 20.1855 40.9429 19.8443 41.4125 19.8443C41.8822 19.8443 42.1867 20.1855 42.1867 20.7616C42.1867 21.3376 41.8822 21.6788 41.4125 21.6788ZM44.678 22.486C45.5329 22.486 46.1273 22.0458 46.1273 21.4073C46.1273 20.857 45.8044 20.5341 45.1256 20.391L44.7 20.2993C44.4872 20.2552 44.3698 20.1562 44.3698 20.0351C44.3698 19.8663 44.5312 19.7636 44.7954 19.7636C45.0926 19.7636 45.3788 19.848 45.7127 20.0424L46.0025 19.3783C45.698 19.1582 45.2834 19.0371 44.8248 19.0371C43.9919 19.0371 43.4489 19.4627 43.4489 20.1305C43.4489 20.6588 43.7644 20.9707 44.4395 21.1065L44.8321 21.1909C45.0963 21.2496 45.188 21.3266 45.188 21.4807C45.188 21.6495 45.0009 21.7449 44.6633 21.7449C44.3845 21.7449 43.9772 21.5945 43.636 21.3706L43.3498 22.0421C43.6397 22.3136 44.146 22.4824 44.6743 22.4897L44.678 22.486Z" fill="white"/>
<path d="M20.851 20.0791C20.7116 20.0791 20.5795 20.1085 20.4547 20.1672C20.3337 20.2259 20.2273 20.3139 20.1429 20.424V19.0701H19.7283V22.2365C19.8494 22.3099 19.9961 22.3686 20.1649 22.4163C20.3337 22.464 20.5024 22.486 20.6786 22.486C21.0198 22.486 21.2876 22.3796 21.4821 22.1668C21.6766 21.954 21.7756 21.6495 21.7756 21.2496C21.7756 20.8863 21.6949 20.6001 21.5371 20.391C21.3794 20.1855 21.1519 20.0791 20.8547 20.0791H20.851ZM20.6382 22.1485C20.4584 22.1485 20.2933 22.1155 20.1429 22.0458V21.0257C20.1429 20.901 20.1722 20.7909 20.2273 20.6992C20.2823 20.6075 20.3594 20.5341 20.4511 20.4864C20.5428 20.435 20.6382 20.4093 20.7409 20.4093C20.9464 20.4093 21.0968 20.4827 21.1922 20.6295C21.2876 20.7762 21.3353 20.9891 21.3353 21.2679C21.3353 21.855 21.1042 22.1485 20.6419 22.1485H20.6382ZM24.1679 20.1268C24.1202 20.3029 24.0688 20.4901 24.0064 20.6882C23.944 20.8863 23.878 21.0881 23.8083 21.2936C23.7386 21.4991 23.6652 21.6935 23.5918 21.8843C23.5184 22.0714 23.4487 22.2439 23.379 22.4017C23.2873 22.6071 23.2029 22.7759 23.1295 22.908C23.0561 23.0401 22.9827 23.1428 22.9094 23.2125C22.836 23.2859 22.7553 23.3336 22.6672 23.3629C22.5791 23.3923 22.4764 23.4033 22.3553 23.4033C22.293 23.4033 22.2306 23.396 22.1609 23.3886C22.0912 23.3776 22.0361 23.3629 21.9884 23.3446L22.0104 23.0327C22.1205 23.0547 22.2232 23.0658 22.315 23.0658C22.4067 23.0658 22.4911 23.0474 22.5608 23.0144C22.6305 22.9814 22.6929 22.9227 22.7516 22.8383C22.8103 22.7539 22.869 22.6401 22.9314 22.4934C22.7259 22.0347 22.5461 21.6128 22.3994 21.2312C22.2526 20.8496 22.1168 20.4827 22.0031 20.1268H22.4507C22.5388 20.4167 22.6378 20.7175 22.7479 21.0257C22.858 21.334 22.9864 21.6825 23.1405 22.0714C23.2616 21.7449 23.3717 21.4073 23.4707 21.0698C23.5698 20.7286 23.6542 20.4167 23.7202 20.1305H24.1679V20.1268Z" fill="white"/>
<path d="M6.58185 1.64772C6.58185 1.33981 6.2485 1.14736 5.98184 1.30132L0.194153 4.64285C0.0703735 4.7143 -0.00585938 4.84635 -0.00585938 4.98925V12.6103C-0.00585938 12.7532 0.0703735 12.8852 0.194153 12.9567L5.98184 16.2982C6.2485 16.4522 6.58185 16.2597 6.58185 15.9518V14.333C6.58185 14.1901 6.50561 14.058 6.38185 13.9866L2.5961 11.8009C2.3486 11.658 2.19611 11.3939 2.19611 11.108V6.49153C2.19611 6.20571 2.3486 5.94161 2.5961 5.7987L6.38185 3.61302C6.50561 3.54156 6.58185 3.40951 6.58185 3.26661V1.64772Z" fill="#FFA014"/>
<path d="M12.1922 8.38748C11.9713 8.38748 11.7922 8.20839 11.7922 7.98748V6.49153C11.7922 6.20571 11.6397 5.94161 11.3922 5.7987L7.60643 3.61302C7.48267 3.54156 7.40643 3.40951 7.40643 3.26661V1.64772C7.40643 1.33981 7.73978 1.14736 8.00644 1.30132L13.7941 4.64285C13.9179 4.7143 13.9941 4.84635 13.9941 4.98925V7.98748C13.9941 8.20839 13.8151 8.38748 13.5941 8.38748H12.1922Z" fill="#FFA014"/>
<path d="M7.40643 14.333C7.40643 14.1901 7.48267 14.058 7.60643 13.9866L11.3922 11.8009C11.6397 11.658 11.7922 11.3939 11.7922 11.108V9.61208C11.7922 9.39116 11.9713 9.21208 12.1922 9.21208H13.5941C13.8151 9.21208 13.9941 9.39116 13.9941 9.61208V12.6103C13.9941 12.7532 13.9179 12.8852 13.7941 12.9567L8.00644 16.2982C7.73978 16.4522 7.40643 16.2597 7.40643 15.9518V14.333Z" fill="#FFA014"/>
<path d="M6.79414 5.41524C6.9179 5.34379 7.07038 5.34379 7.19414 5.41524L9.82523 6.9343C9.94899 7.00576 10.0252 7.13781 10.0252 7.28071V10.3188C10.0252 10.4617 9.94899 10.5938 9.82523 10.6652L7.19414 12.1843C7.07038 12.2558 6.9179 12.2558 6.79414 12.1843L4.16305 10.6652C4.03929 10.5938 3.96305 10.4617 3.96305 10.3188V7.28071C3.96305 7.13781 4.03929 7.00576 4.16305 6.9343L6.79414 5.41524Z" fill="#FFA014"/>
</svg>
